<?xml version="1.0" standalone="no"?>
<!DOCTYPE svg PUBLIC "-//W3C//DTD SVG 20010904//EN"
 "http://www.w3.org/TR/2001/REC-SVG-20010904/DTD/svg10.dtd">
<svg version="1.0" xmlns="http://www.w3.org/2000/svg"
 width="2048.000000pt" height="2048.000000pt" viewBox="0 0 2048.000000 2048.000000"
 preserveAspectRatio="xMidYMid meet">
<metadata>
Created by potrace 1.14, written by Peter Selinger 2001-2017
</metadata>
<g transform="translate(0.000000,2048.000000) scale(0.100000,-0.100000)"
fill="#000000" stroke="none">
<path d="M12873 18772 c-8 -5 -12 -137 -13 -442 -1 -239 -2 -442 -1 -450 1
-13 195 -15 1693 -12 931 1 1702 5 1714 7 21 5 21 5 16 442 -2 241 -7 441 -11
444 -8 9 -3384 19 -3398 11z"/>
<path d="M10087 17567 c-34 -17 -134 -89 -222 -159 -88 -71 -301 -231 -473
-356 -535 -388 -1637 -1206 -1762 -1309 -8 -7 -94 -71 -190 -143 -96 -72 -188
-141 -204 -153 -16 -12 -90 -68 -165 -125 -118 -89 -295 -224 -326 -250 -6 -5
-46 -35 -90 -67 -71 -52 -456 -338 -726 -539 -52 -39 -108 -80 -123 -91 -16
-11 -33 -25 -40 -30 -6 -6 -27 -22 -46 -36 -19 -14 -168 -125 -330 -246 -162
-120 -414 -308 -560 -416 -146 -108 -294 -219 -330 -247 -36 -27 -211 -158
-390 -291 -406 -302 -474 -353 -480 -360 -3 -3 -27 -21 -55 -40 -27 -18 -52
-37 -55 -40 -3 -3 -57 -43 -120 -90 -145 -106 -491 -363 -1035 -770 -233 -174
-439 -326 -459 -338 l-35 -22 5 -517 c2 -284 9 -683 14 -887 5 -203 13 -594
16 -868 7 -453 9 -496 23 -485 9 7 32 21 51 31 49 24 218 149 785 577 565 427
908 682 1399 1040 56 41 254 190 440 330 186 140 413 311 506 380 456 340 746
556 955 711 127 93 248 183 270 200 22 17 200 150 395 295 195 146 411 307
480 359 69 52 193 144 275 205 83 61 168 124 190 141 22 16 249 181 505 366
256 184 614 446 795 581 644 479 911 680 994 745 46 37 93 67 103 67 10 0 85
-51 166 -113 125 -97 483 -359 556 -407 12 -8 56 -39 97 -69 41 -30 121 -89
179 -131 220 -161 867 -622 1080 -770 163 -113 276 -192 480 -336 85 -61 301
-212 480 -338 179 -125 420 -294 535 -376 116 -82 242 -171 280 -198 39 -26
225 -158 415 -293 190 -135 383 -272 430 -304 47 -33 168 -118 270 -190 102
-72 284 -201 405 -286 352 -248 397 -280 658 -467 136 -97 292 -208 346 -247
54 -38 163 -116 242 -173 626 -448 1398 -994 1557 -1102 49 -34 116 -83 148
-109 73 -58 172 -114 190 -107 11 4 12 39 8 188 -3 101 -9 729 -13 1397 l-6
1213 -45 39 c-118 103 -1075 806 -2170 1594 -256 184 -479 355 -489 373 -9 18
-18 461 -27 1407 -18 1756 -30 2621 -37 2633 -6 9 -78 12 -300 12 -343 0
-1924 -28 -2044 -36 l-83 -6 0 -141 c0 -78 5 -452 10 -832 15 -1168 15 -1260
-1 -1257 -7 2 -83 54 -169 116 -542 393 -1566 1138 -1625 1181 -38 28 -153
112 -255 185 -165 119 -253 183 -575 420 -49 37 -164 121 -255 186 -329 240
-327 239 -423 191z"/>
<path d="M8885 12505 c-82 -60 -262 -189 -400 -288 -137 -99 -263 -189 -280
-202 -44 -32 -429 -309 -730 -525 -143 -103 -300 -216 -350 -252 -188 -136
-541 -389 -810 -583 -719 -517 -1011 -726 -1140 -820 -77 -56 -298 -214 -492
-353 -618 -443 -766 -549 -858 -616 -49 -36 -142 -102 -205 -147 -178 -126
-159 -84 -163 -353 -13 -697 -32 -3773 -32 -5058 0 -1207 2 -1489 13 -1500 10
-10 225 -14 1080 -19 587 -4 1412 -10 1834 -13 l768 -7 17 21 c10 11 51 98 91
193 101 239 313 744 382 912 32 77 98 235 148 350 93 219 215 510 334 800 39
94 92 222 118 285 55 135 392 967 520 1285 82 204 160 439 160 483 0 10 -6 26
-13 36 -12 17 -42 18 -413 20 -2060 13 -2536 19 -2541 33 -5 12 1373 2781
1728 3473 165 322 740 1469 803 1603 24 51 83 173 131 272 169 349 250 521
352 750 82 186 108 262 101 306 -3 19 -19 10 -153 -86z"/>
<path d="M13369 11168 c-19 -16 -55 -74 -144 -233 -37 -66 -224 -381 -415
-700 -343 -572 -522 -876 -688 -1170 -47 -82 -102 -179 -123 -214 -22 -34 -39
-65 -39 -67 0 -2 -37 -63 -81 -136 -208 -340 -259 -428 -259 -451 0 -13 9 -32
21 -43 20 -18 55 -19 1008 -24 542 -3 992 -9 999 -13 6 -5 12 -13 12 -18 0 -6
-42 -58 -93 -117 -208 -239 -522 -619 -1311 -1587 -283 -346 -626 -766 -702
-860 -109 -134 -685 -846 -773 -955 -88 -110 -315 -389 -411 -505 -36 -44
-129 -156 -205 -249 -77 -93 -185 -223 -241 -290 -55 -66 -174 -211 -264 -321
-248 -302 -405 -493 -458 -555 -65 -76 -380 -474 -437 -551 -96 -130 -233
-339 -226 -343 3 -2 843 -9 1866 -15 1023 -6 2078 -13 2345 -16 267 -2 1273
-8 2236 -11 1346 -6 1753 -4 1758 5 16 26 28 332 37 1011 19 1420 29 2695 35
4316 l6 1651 -63 45 c-62 43 -349 254 -694 510 -93 69 -402 298 -685 507 -283
209 -596 441 -695 514 -99 74 -252 187 -340 252 -88 65 -254 189 -370 275
-262 195 -316 232 -440 309 -99 61 -138 72 -166 49z"/>
</g>
</svg>
