<?xml version="1.0" standalone="no"?>
<!DOCTYPE svg PUBLIC "-//W3C//DTD SVG 20010904//EN"
 "http://www.w3.org/TR/2001/REC-SVG-20010904/DTD/svg10.dtd">
<svg version="1.0" xmlns="http://www.w3.org/2000/svg"
 width="260.000000pt" height="260.000000pt" viewBox="0 0 260.000000 260.000000"
 preserveAspectRatio="xMidYMid meet">
<metadata>
Created by potrace 1.14, written by Peter Selinger 2001-2017
</metadata>
<g transform="translate(0.000000,260.000000) scale(0.100000,-0.100000)"
fill="#000000" stroke="none">
<path d="M0 1300 l0 -1300 1300 0 1300 0 0 1300 0 1300 -1300 0 -1300 0 0
-1300z m894 755 c146 -31 269 -116 340 -234 138 -230 117 -624 -43 -825 -17
-21 -31 -42 -31 -45 0 -3 36 -33 80 -66 43 -33 79 -62 79 -65 0 -3 -19 -27
-43 -54 l-44 -50 -96 72 -96 72 -41 -20 c-68 -35 -185 -60 -278 -60 -231 1
-411 100 -503 275 -176 337 -65 809 225 956 108 55 306 75 451 44z m1388 -615
c119 -327 217 -603 217 -612 1 -16 -10 -18 -88 -18 l-89 0 -50 143 c-27 78
-55 161 -62 185 l-13 42 -240 -2 -239 -3 -62 -170 c-34 -93 -65 -176 -69 -182
-8 -13 -157 -19 -169 -8 -4 5 209 582 428 1158 l26 68 97 -3 96 -3 217 -595z"/>
<path d="M642 1910 c-125 -26 -229 -107 -279 -216 -73 -160 -66 -424 14 -563
62 -107 155 -171 280 -192 65 -11 183 -3 226 14 l29 12 -66 50 c-36 27 -66 52
-66 55 0 3 20 27 44 55 l44 50 74 -58 c42 -31 79 -57 85 -57 12 0 69 95 86
145 45 128 48 321 6 437 -26 72 -83 158 -131 197 -76 61 -236 94 -346 71z"/>
<path d="M1865 1584 c-50 -136 -91 -251 -93 -255 -2 -5 80 -9 183 -9 103 0
185 4 183 8 -1 5 -41 119 -88 255 -46 136 -87 247 -90 247 -3 0 -46 -111 -95
-246z"/>
</g>
</svg>
